<svg xmlns="http://www.w3.org/2000/svg" width="11.79" height="13.474" viewBox="0 0 11.79 13.474">
  <path id="Icon_metro-organization" data-name="Icon metro-organization" d="M14.6,6.981H6.183A1.685,1.685,0,0,0,4.5,8.665v.842a1.676,1.676,0,0,0,.842,1.451v2.76H8.709V15.4h3.368V13.718h3.368v-2.76a1.676,1.676,0,0,0,.842-1.451V8.665A1.685,1.685,0,0,0,14.6,6.981ZM7.867,12.876H6.183V9.507H5.341V8.665a.843.843,0,0,1,.842-.842H7.258a1.665,1.665,0,0,0-.233.842v1.684A1.676,1.676,0,0,0,7.867,11.8Zm4.211-1.684V9.507h-.842V14.56H9.551V9.507H8.709v1.684a.842.842,0,0,1-.842-.842V8.665a.843.843,0,0,1,.842-.842h3.368a.842.842,0,0,1,.842.842v1.684a.842.842,0,0,1-.842.842Zm3.368-1.684H14.6v3.368H12.92V11.8a1.676,1.676,0,0,0,.842-1.451V8.665a1.666,1.666,0,0,0-.234-.842H14.6a.842.842,0,0,1,.842.842v.842ZM8.495,6.1a2.495,2.495,0,0,0,3.8,0,1.682,1.682,0,1,0,.557-2.22,2.519,2.519,0,0,0-4.911,0A1.685,1.685,0,1,0,8.495,6.1Zm5.267-1.65a.842.842,0,1,1-.842.842A.841.841,0,0,1,13.762,4.454ZM10.394,2.77A1.684,1.684,0,1,1,8.709,4.454,1.685,1.685,0,0,1,10.394,2.77ZM7.025,6.139A.842.842,0,1,1,7.867,5.3.842.842,0,0,1,7.025,6.139Z" transform="translate(-4.499 -1.928)" fill="#36373b"/>
</svg>
