<svg id="Group_12298" data-name="Group 12298" xmlns="http://www.w3.org/2000/svg" width="48" height="48" viewBox="0 0 48 48">
  <circle id="Ellipse_7" data-name="Ellipse 7" cx="24" cy="24" r="24" fill="#fee9c5"/>
  <path id="Path_4549" data-name="Path 4549" d="M17.667,26.667a.666.666,0,0,1-.667.667h-.667a1.333,1.333,0,0,1-2.667,0H13A.667.667,0,0,1,13,26h4a.666.666,0,0,1,.667.667ZM5,13.333H3.667a.667.667,0,1,0,0,1.333H5a.667.667,0,1,0,0-1.333Zm21.333,0H25a.667.667,0,1,0,0,1.333h1.333a.667.667,0,1,0,0-1.333ZM25.393,8a.665.665,0,0,0-.911-.243l-1.155.667a.666.666,0,0,0,.334,1.243.657.657,0,0,0,.333-.09l1.155-.667A.666.666,0,0,0,25.393,8ZM19.667,5.917a.657.657,0,0,0,.333.09.667.667,0,0,0,.578-.333l.667-1.155a.667.667,0,0,0-1.155-.667l-.667,1.155a.666.666,0,0,0,.244.91ZM15,4.667A.666.666,0,0,0,15.667,4V2.667a.667.667,0,0,0-1.333,0V4A.666.666,0,0,0,15,4.667ZM9.423,5.673A.667.667,0,0,0,10,6.007a.657.657,0,0,0,.333-.09.666.666,0,0,0,.244-.91L9.911,3.852a.667.667,0,1,0-1.155.667ZM6.673,8.423,5.518,7.757A.666.666,0,0,0,4.852,8.91l1.155.667a.657.657,0,0,0,.333.09.666.666,0,0,0,.334-1.243ZM23,14a7.99,7.99,0,0,1-4,6.92V22a2.667,2.667,0,0,1-2.667,2.667H13.667A2.667,2.667,0,0,1,11,22V20.921A8,8,0,1,1,23,14Z" transform="translate(9.199 8.667)" fill="#fbb06f"/>
</svg>
