<svg id="eqwp_o" data-name="eqwp@o" xmlns="http://www.w3.org/2000/svg" width="48" height="48" viewBox="0 0 48 48">
  <circle id="Ellipse_7" data-name="Ellipse 7" cx="24" cy="24" r="24" fill="#effdde"/>
  <g id="noun-clock-6841572" transform="translate(4.188 4.188)">
    <g id="Group_12305" data-name="Group 12305" transform="translate(7.812 7.813)">
      <path id="Path_4560" data-name="Path 4560" d="M49,48.33a.674.674,0,0,1-1.348,0,.674.674,0,1,1,1.348,0" transform="translate(-36.196 -36.196)" fill="#7ed957"/>
      <path id="Path_4561" data-name="Path 4561" d="M25.512,15.625A9.887,9.887,0,1,0,35.4,25.512,9.917,9.917,0,0,0,25.512,15.625Zm-.449,1.348a.449.449,0,0,1,.9,0v1.348a.449.449,0,0,1-.9,0Zm-5.888,2.2a.434.434,0,0,1,.629,0l.944.944a.434.434,0,0,1,0,.629.485.485,0,0,1-.315.135.408.408,0,0,1-.315-.135l-.944-.944a.434.434,0,0,1,0-.629Zm-.854,6.786H16.973a.449.449,0,0,1,0-.9h1.348a.449.449,0,1,1,0,.9Zm2.427,4.944-.944.944a.485.485,0,0,1-.315.135.408.408,0,0,1-.315-.135.434.434,0,0,1,0-.629l.944-.944a.445.445,0,0,1,.629.629Zm5.213,3.146a.449.449,0,0,1-.9,0V32.7a.449.449,0,1,1,.9,0Zm-.449-6.966a1.55,1.55,0,0,1-1.483-1.124H21.018a.449.449,0,0,1,0-.9h3.011a1.5,1.5,0,0,1,1.034-1.034V20.12a.449.449,0,1,1,.9,0v3.91a1.559,1.559,0,0,1-.449,3.056Zm6.337,4.764a.485.485,0,0,1-.315.135.408.408,0,0,1-.315-.135l-.944-.944a.445.445,0,0,1,.629-.629l.944.944a.434.434,0,0,1,0,.629Zm0-12.045-.944.944a.485.485,0,0,1-.315.135.408.408,0,0,1-.315-.135.434.434,0,0,1,0-.629l.944-.944a.445.445,0,1,1,.629.629Zm2.2,6.157H32.7a.449.449,0,0,1,0-.9h1.348a.449.449,0,1,1,0,.9Z" transform="translate(-13.378 -13.378)" fill="#7ed957"/>
      <path id="Path_4562" data-name="Path 4562" d="M19.947,7.813A12.135,12.135,0,1,0,32.082,19.947,12.142,12.142,0,0,0,19.947,7.813Zm0,22.921A10.786,10.786,0,1,1,30.733,19.947,10.818,10.818,0,0,1,19.947,30.734Z" transform="translate(-7.812 -7.813)" fill="#7ed957"/>
    </g>
  </g>
</svg>
