<svg id="ytiyut" xmlns="http://www.w3.org/2000/svg" width="48" height="48" viewBox="0 0 48 48">
  <circle id="Ellipse_7" data-name="Ellipse 7" cx="24" cy="24" r="24" fill="#e2f4fe"/>
  <path id="Union_3" data-name="Union 3" d="M24.074,20H4.782a.571.571,0,0,1-.582-.565,9.952,9.952,0,0,1,6.525-9.225,6.345,6.345,0,0,0,.986.767,5.155,5.155,0,0,0,2.58.807c.045,0,.092,0,.142,0a2.319,2.319,0,0,0,.243-.008,5.436,5.436,0,0,0,3.449-1.571,9.984,9.984,0,0,1,6.531,9.113.69.69,0,0,1,.011.113.572.572,0,0,1-.583.565ZM.565,15.409A.565.565,0,0,1,0,14.844a5.827,5.827,0,0,1,2.935-5.05,4.231,4.231,0,0,0,1.013.918,3.447,3.447,0,0,0,1.878.565,3.246,3.246,0,0,0,.868-.118A11.235,11.235,0,0,0,3.8,15.409Zm24.5,0a11,11,0,0,0-2.878-4.245,3.332,3.332,0,0,0,.844.115,3.761,3.761,0,0,0,2.887-1.486,5.828,5.828,0,0,1,2.938,5.052.563.563,0,0,1-.565.564ZM14.3,10.221a3.719,3.719,0,0,1-1.9-.627,5.206,5.206,0,0,1-1.265-1.156c-.022-.024-.039-.046-.062-.073A6.266,6.266,0,0,1,9.757,4.67a4.671,4.671,0,0,1,9.341,0c0,2.479-1.965,5.432-4.507,5.551a1.557,1.557,0,0,1-.157.005C14.388,10.227,14.349,10.221,14.3,10.221Zm7.461-.638a3.041,3.041,0,0,1-.779-.717.326.326,0,0,1-.029-.035,3.742,3.742,0,0,1-.8-2.225,2.877,2.877,0,1,1,5.755,0c0,1.559-1.259,3.365-2.875,3.365A2.326,2.326,0,0,1,21.765,9.583Zm-17.209,0a3.113,3.113,0,0,1-.774-.712c-.012-.011-.022-.029-.035-.04a3.78,3.78,0,0,1-.795-2.225,2.874,2.874,0,1,1,5.748,0c0,1.559-1.253,3.365-2.875,3.365A2.351,2.351,0,0,1,4.556,9.583Z" transform="translate(9.57 14)" fill="#72b1fd"/>
</svg>
