<svg id="hjgfkdhjkg" xmlns="http://www.w3.org/2000/svg" width="48" height="48" viewBox="0 0 48 48">
  <circle id="Ellipse_7" data-name="Ellipse 7" cx="24" cy="24" r="24" fill="#e8e6fd"/>
  <path id="Path_5" data-name="Path 5" d="M25.371,13.6a2.116,2.116,0,0,0-2.97-.078l-4.845,4.308a1.751,1.751,0,0,0-1.663-1.223H6.08a1.56,1.56,0,0,0-1.469-1.044H3.56A1.567,1.567,0,0,0,2,17.122v7.319A1.567,1.567,0,0,0,3.56,26H4.6A1.56,1.56,0,0,0,6.08,24.957h2.2l.659.272A10.245,10.245,0,0,0,20.744,22.28L25.5,16.532a2.189,2.189,0,0,0-.125-2.934ZM7.739,23.913H6.178V17.652h1.56ZM16.6,18.236ZM13.735,15.5a.526.526,0,0,0,.526,0c.289-.169,7.087-4.19,7.087-8.961A4.534,4.534,0,0,0,16.826,2,4.482,4.482,0,0,0,14,3a4.482,4.482,0,0,0-2.831-1A4.533,4.533,0,0,0,6.648,6.534c0,4.77,6.8,8.791,7.087,8.961ZM16.829,3.044Z" transform="translate(10 9.998)" fill="#7f77d9"/>
</svg>
