<svg id="Component_5_517" data-name="Component 5 – 517" xmlns="http://www.w3.org/2000/svg" width="32" height="32" viewBox="0 0 32 32">
  <g id="Group_12115" data-name="Group 12115" transform="translate(-1210 -197)">
    <rect id="Rectangle_3110" data-name="Rectangle 3110" width="32" height="32" rx="16" transform="translate(1210 197)" fill="#effdde"/>
    <path id="Icon_awesome-check" data-name="Icon awesome-check" d="M4.755,14.812l-4.55-4.55a.7.7,0,0,1,0-.99l.99-.99a.7.7,0,0,1,.99,0L5.25,11.347l6.565-6.565a.7.7,0,0,1,.99,0l.99.99a.7.7,0,0,1,0,.99l-8.05,8.05A.7.7,0,0,1,4.755,14.812Z" transform="translate(1219 203.426)" fill="#7ed957"/>
  </g>
</svg>
