<svg xmlns="http://www.w3.org/2000/svg" width="16" height="16" viewBox="0 0 16 16">
  <path id="controls" d="M0,.267V15.733A.267.267,0,0,0,.267,16H15.733A.267.267,0,0,0,16,15.733V.267A.267.267,0,0,0,15.733,0H.267A.267.267,0,0,0,0,.267ZM14.133,12.8a1.865,1.865,0,0,1-3.712.267H2.133a.267.267,0,0,1,0-.533h8.288a1.865,1.865,0,0,1,3.712.267ZM9.579,7.733h4.288a.267.267,0,0,1,0,.533H9.579a1.864,1.864,0,0,1-3.691,0H2.133a.267.267,0,0,1,0-.533H5.888a1.864,1.864,0,0,1,3.691,0Zm-4-4.8h8.288a.267.267,0,0,1,0,.533H5.579a1.867,1.867,0,1,1,0-.533Z" fill="#fff"/>
</svg>
