<svg xmlns="http://www.w3.org/2000/svg" xmlns:xlink="http://www.w3.org/1999/xlink" width="164.786" height="164.786" viewBox="0 0 164.786 164.786">
  <defs>
    <filter id="Ellipse_5" x="0" y="0" width="164.786" height="164.786" filterUnits="userSpaceOnUse">
      <feOffset dy="2" input="SourceAlpha"/>
      <feGaussianBlur stdDeviation="12" result="blur"/>
      <feFlood flood-color="#ff5765" flood-opacity="0.149"/>
      <feComposite operator="in" in2="blur"/>
      <feComposite in="SourceGraphic"/>
    </filter>
  </defs>
  <g id="Group_12007" data-name="Group 12007" transform="translate(-711 -157.503)">
    <g transform="matrix(1, 0, 0, 1, 711, 157.5)" filter="url(#Ellipse_5)">
      <circle id="Ellipse_5-2" data-name="Ellipse 5" cx="46.393" cy="46.393" r="46.393" transform="translate(36 34)" fill="#fff"/>
    </g>
    <path id="Icon_material-block" data-name="Icon material-block" d="M27,3A24,24,0,1,0,51,27,24.009,24.009,0,0,0,27,3ZM7.8,27A19.2,19.2,0,0,1,27,7.8a18.966,18.966,0,0,1,11.76,4.056l-26.9,26.9A18.966,18.966,0,0,1,7.8,27ZM27,46.2a18.966,18.966,0,0,1-11.76-4.056l26.9-26.9A18.966,18.966,0,0,1,46.2,27,19.2,19.2,0,0,1,27,46.2Z" transform="translate(766 211.503)" fill="#ff5765"/>
  </g>
</svg>
