<svg xmlns="http://www.w3.org/2000/svg" width="325.356" height="101.082" viewBox="0 0 325.356 101.082">
  <g id="Group_11991" data-name="Group 11991" transform="translate(-24.822 -143)">
    <path id="Rectangle_3" data-name="Rectangle 3" d="M24,0H301.356a24,24,0,0,1,24,24v77.082a0,0,0,0,1,0,0H0a0,0,0,0,1,0,0V24A24,24,0,0,1,24,0Z" transform="translate(24.822 143)" fill="#FF5765"/>
    <g id="Group_1754" data-name="Group 1754">
      <path id="Path_2987" data-name="Path 2987" d="M17.125,40.364h0q-.067-.89-.128-1.726c-.272-3.695-.486-6.613-.9-8.927a11.072,11.072,0,0,0-2.1-5.319,9.262,9.262,0,0,0-4.85-2.809A51.018,51.018,0,0,0,0,20.186a51.056,51.056,0,0,0,9.145-1.4,9.266,9.266,0,0,0,4.85-2.806,11.054,11.054,0,0,0,2.1-5.313c.414-2.31.628-5.225.9-8.915q.062-.85.129-1.756.068.906.13,1.756c.271,3.69.485,6.6.9,8.916a11.049,11.049,0,0,0,2.1,5.313A9.263,9.263,0,0,0,25.1,18.79a51.078,51.078,0,0,0,9.145,1.4,51.055,51.055,0,0,0-9.145,1.4,9.261,9.261,0,0,0-4.849,2.806,11.047,11.047,0,0,0-2.1,5.313c-.414,2.311-.628,5.225-.9,8.915Q17.192,39.462,17.125,40.364ZM29.091,31.44a19.613,19.613,0,0,1-4.932-4.876,19.689,19.689,0,0,1,4.933,4.875Zm-23.942,0h0a19.461,19.461,0,0,1,4.934-4.875A19.438,19.438,0,0,1,5.149,31.44ZM24.161,13.805h0a19.354,19.354,0,0,1,4.932-4.874l0,0A19.623,19.623,0,0,1,24.161,13.805Zm-14.083,0A19.682,19.682,0,0,1,5.147,8.93l.005,0A19.827,19.827,0,0,1,10.079,13.8Z" transform="translate(48.157 157.678)" fill="#fff" opacity="0.11"/>
      <path id="Path_2987-2" data-name="Path 2987" d="M11.282,26.449h0q-.044-.583-.084-1.131c-.179-2.421-.32-4.333-.593-5.85a7.234,7.234,0,0,0-1.384-3.485,6.109,6.109,0,0,0-3.195-1.841A33.778,33.778,0,0,0,0,13.227a33.8,33.8,0,0,0,6.024-.915,6.111,6.111,0,0,0,3.195-1.839A7.222,7.222,0,0,0,10.6,6.992c.273-1.514.414-3.424.592-5.842Q11.237.593,11.281,0q.045.594.086,1.151c.179,2.418.32,4.328.593,5.842a7.219,7.219,0,0,0,1.384,3.481,6.109,6.109,0,0,0,3.195,1.839,33.818,33.818,0,0,0,6.024.915,33.8,33.8,0,0,0-6.024.914,6.108,6.108,0,0,0-3.195,1.839,7.218,7.218,0,0,0-1.384,3.481c-.273,1.514-.414,3.424-.593,5.842Q11.326,25.858,11.282,26.449ZM19.165,20.6a12.893,12.893,0,0,1-3.249-3.195,12.933,12.933,0,0,1,3.25,3.194Zm-15.773,0h0a12.783,12.783,0,0,1,3.25-3.194A12.778,12.778,0,0,1,3.392,20.6ZM15.918,9.046h0a12.723,12.723,0,0,1,3.249-3.194v0A12.89,12.89,0,0,1,15.918,9.046Zm-9.278,0A12.928,12.928,0,0,1,3.391,5.852h0A13.033,13.033,0,0,1,6.64,9.045Z" transform="translate(92 184.817)" fill="#fff" opacity="0.11"/>
    </g>
    <g id="Group_1755" data-name="Group 1755" transform="translate(371.7 386.91) rotate(180)">
      <path id="Path_2987-3" data-name="Path 2987" d="M17.125,40.364h0q-.067-.89-.128-1.726c-.272-3.695-.486-6.613-.9-8.927a11.072,11.072,0,0,0-2.1-5.319,9.262,9.262,0,0,0-4.85-2.809A51.018,51.018,0,0,0,0,20.186a51.056,51.056,0,0,0,9.145-1.4,9.266,9.266,0,0,0,4.85-2.806,11.054,11.054,0,0,0,2.1-5.313c.414-2.31.628-5.225.9-8.915q.062-.85.129-1.756.068.906.13,1.756c.271,3.69.485,6.6.9,8.916a11.049,11.049,0,0,0,2.1,5.313A9.263,9.263,0,0,0,25.1,18.79a51.078,51.078,0,0,0,9.145,1.4,51.055,51.055,0,0,0-9.145,1.4,9.261,9.261,0,0,0-4.849,2.806,11.047,11.047,0,0,0-2.1,5.313c-.414,2.311-.628,5.225-.9,8.915Q17.192,39.462,17.125,40.364ZM29.091,31.44a19.613,19.613,0,0,1-4.932-4.876,19.689,19.689,0,0,1,4.933,4.875Zm-23.942,0h0a19.461,19.461,0,0,1,4.934-4.875A19.438,19.438,0,0,1,5.149,31.44ZM24.161,13.805h0a19.354,19.354,0,0,1,4.932-4.874l0,0A19.623,19.623,0,0,1,24.161,13.805Zm-14.083,0A19.682,19.682,0,0,1,5.147,8.93l.005,0A19.827,19.827,0,0,1,10.079,13.8Z" transform="translate(48.157 157.678)" fill="#fff" opacity="0.11"/>
      <path id="Path_2987-4" data-name="Path 2987" d="M11.282,26.449h0q-.044-.583-.084-1.131c-.179-2.421-.32-4.333-.593-5.85a7.234,7.234,0,0,0-1.384-3.485,6.109,6.109,0,0,0-3.195-1.841A33.778,33.778,0,0,0,0,13.227a33.8,33.8,0,0,0,6.024-.915,6.111,6.111,0,0,0,3.195-1.839A7.222,7.222,0,0,0,10.6,6.992c.273-1.514.414-3.424.592-5.842Q11.237.593,11.281,0q.045.594.086,1.151c.179,2.418.32,4.328.593,5.842a7.219,7.219,0,0,0,1.384,3.481,6.109,6.109,0,0,0,3.195,1.839,33.818,33.818,0,0,0,6.024.915,33.8,33.8,0,0,0-6.024.914,6.108,6.108,0,0,0-3.195,1.839,7.218,7.218,0,0,0-1.384,3.481c-.273,1.514-.414,3.424-.593,5.842Q11.326,25.858,11.282,26.449ZM19.165,20.6a12.893,12.893,0,0,1-3.249-3.195,12.933,12.933,0,0,1,3.25,3.194Zm-15.773,0h0a12.783,12.783,0,0,1,3.25-3.194A12.778,12.778,0,0,1,3.392,20.6ZM15.918,9.046h0a12.723,12.723,0,0,1,3.249-3.194v0A12.89,12.89,0,0,1,15.918,9.046Zm-9.278,0A12.928,12.928,0,0,1,3.391,5.852h0A13.033,13.033,0,0,1,6.64,9.045Z" transform="translate(92 184.817)" fill="#fff" opacity="0.11"/>
    </g>
  </g>
</svg>
