<svg xmlns="http://www.w3.org/2000/svg" width="38.726" height="38.709" viewBox="0 0 38.726 38.709">
  <path id="Path_514" data-name="Path 514" d="M35.516,38.709h0a.308.308,0,0,1-.307-.309l.036-10.052a6.735,6.735,0,0,1-.823.048c-.112,0-.229,0-.35-.006a.307.307,0,0,1,.009-.615h.014c.114,0,.225.006.331.006a5.184,5.184,0,0,0,1.064-.1c1.473-.306,1.639-1.292,1.825-3.156v0a11.889,11.889,0,0,1,.742-3.516.5.5,0,0,0-.033-.525.62.62,0,0,0-.479-.193.826.826,0,0,0-.156.015.812.812,0,0,0-.637.585c-.017.067-.167.674-.335,1.809a1.587,1.587,0,0,1-.229.588.039.039,0,0,1-.009.009l-.007.006,0,.006,0,.006-.007.009-.006.009a2.362,2.362,0,0,1-.666.589,1.387,1.387,0,0,0-.738,1.6.308.308,0,0,1-.278.334H34.44a.306.306,0,0,1-.306-.28,1.974,1.974,0,0,1,1.009-2.168c.074-.048.143-.1.211-.146a.972.972,0,0,1-.377-.642.291.291,0,0,1,0-.077l.5-7.236a.455.455,0,0,0-.127-.425.275.275,0,0,0-.157-.045.441.441,0,0,0-.187.045.822.822,0,0,0-.406.709l-.388,4.048a.3.3,0,0,1,.2.3.307.307,0,0,1-.313.287h-.012c-.041,0-.127-.006-.252-.006-.075,0-.152,0-.23,0a9.779,9.779,0,0,0-1.909.21l-.026,0a6.079,6.079,0,0,0-1.638.589l-.011,0L30,21.047l-.013.008,0,0a3.535,3.535,0,0,0-.752.569.308.308,0,0,1-.438-.432,3.827,3.827,0,0,1,.375-.329.686.686,0,0,1-.067-.13.375.375,0,0,1-.014-.058l-.486-3.159c-.039-.18-.142-.288-.274-.288a.256.256,0,0,0-.043,0c-.152.027-.3.193-.258.494l.405,7.681a3.1,3.1,0,0,0,.314,1.2,1.983,1.983,0,0,0,.908.922,2.434,2.434,0,0,0,1.063.219,4,4,0,0,0,.622-.052.325.325,0,0,1,.046,0,.307.307,0,0,1,.05.611,4.666,4.666,0,0,1-.716.058,3.291,3.291,0,0,1-.9-.121l-.132,10.161a.31.31,0,0,1-.308.3h0a.307.307,0,0,1-.3-.312l.135-10.415a2.508,2.508,0,0,1-.825-.785,51.308,51.308,0,0,1-4.827,3.16l.1,8.04a.307.307,0,1,1-.614.008l-.106-8.222-.07-5.418a4.236,4.236,0,0,1-1.259.183,6.068,6.068,0,0,1-.918-.074.307.307,0,0,1,.093-.607,5.5,5.5,0,0,0,.822.066,3.324,3.324,0,0,0,1.43-.289,3.373,3.373,0,0,0,1.644-2.785l.609-9.919c0-.691-.228-1.012-.454-1.024h-.017c-.21,0-.463.258-.5.674l-.49,4.713.032.028.015.014c.059.052.121.105.177.161a.307.307,0,0,1-.218.524.3.3,0,0,1-.218-.09c-.084-.084-.182-.173-.309-.279a5.006,5.006,0,0,0-.787-.518,7.424,7.424,0,0,0-1.505-.59,9.42,9.42,0,0,0-.942-.214,12.282,12.282,0,0,0-1.563-.19c-.429-.028-.775-.031-1-.031-.151,0-.248.007-.279.009h-.028a.31.31,0,0,1-.306-.29.308.308,0,0,1,.289-.325h.018V8.687a.869.869,0,0,0-.784-.973.51.51,0,0,0-.37.148.728.728,0,0,0-.171.519l.1,9.217a.3.3,0,0,1-.005.059,1.142,1.142,0,0,1-.553.833c.118.092.243.175.373.259a2.443,2.443,0,0,1,1.279,2.7.307.307,0,0,1-.306.278h-.028a.307.307,0,0,1-.278-.334,1.851,1.851,0,0,0-1-2.131,2.876,2.876,0,0,1-.876-.77l-.006-.007,0,0,0,0h0a1.805,1.805,0,0,1-.286-.709c-.225-1.5-.424-2.274-.446-2.358a1.155,1.155,0,0,0-.9-.794,1.209,1.209,0,0,0-.218-.02.909.909,0,0,0-.705.288.74.74,0,0,0-.05.758,14.9,14.9,0,0,1,.961,4.483c.226,2.223.375,3.692,2.451,4.117l.007,0,.005,0a7.142,7.142,0,0,0,1.394.12c.139,0,.286,0,.436-.008h.011a.31.31,0,0,1,.308.3.308.308,0,0,1-.3.318c-.168.006-.317.008-.454.008a8.386,8.386,0,0,1-1.163-.073L15.675,38.4a.308.308,0,0,1-.615,0l-.026-8.122a50.95,50.95,0,0,1-4.7-3.084,2.522,2.522,0,0,1-.827.786L9.648,38.4a.308.308,0,0,1-.3.312h0a.309.309,0,0,1-.308-.3L8.9,28.243a3.306,3.306,0,0,1-.9.121,4.674,4.674,0,0,1-.717-.058.307.307,0,0,1,.05-.611.315.315,0,0,1,.046,0A4.043,4.043,0,0,0,8,27.75a2.45,2.45,0,0,0,1.065-.218,1.986,1.986,0,0,0,.908-.923,3.14,3.14,0,0,0,.314-1.192l.4-7.667c.042-.32-.1-.491-.255-.519a.257.257,0,0,0-.04,0c-.137,0-.24.111-.281.3l-.482,3.143a.27.27,0,0,1-.015.057.605.605,0,0,1-.064.129,3.758,3.758,0,0,1,.375.332.3.3,0,0,1,.087.217.307.307,0,0,1-.093.218.313.313,0,0,1-.215.087.307.307,0,0,1-.219-.093,3.468,3.468,0,0,0-.746-.566l0,0,0,0-.018-.011-.01,0-.009,0a6.049,6.049,0,0,0-1.635-.589l-.03,0a9.877,9.877,0,0,0-1.9-.211l-.215,0c-.141,0-.236,0-.27.006H4.63a.306.306,0,0,1-.311-.289.3.3,0,0,1,.2-.3L4.134,15.6a.828.828,0,0,0-.408-.715.44.44,0,0,0-.187-.045.276.276,0,0,0-.156.044.451.451,0,0,0-.127.422l.5,7.24a.271.271,0,0,1,0,.077.967.967,0,0,1-.377.641c.06.044.127.091.21.147a1.973,1.973,0,0,1,1.01,2.168.305.305,0,0,1-.306.28H4.259a.31.31,0,0,1-.279-.334,1.386,1.386,0,0,0-.738-1.6,2.363,2.363,0,0,1-.671-.595l0-.005,0-.006,0-.006,0-.006-.007-.007a.039.039,0,0,1-.008-.008,1.594,1.594,0,0,1-.227-.574c-.183-1.234-.341-1.836-.343-1.84a.8.8,0,0,0-.632-.567.817.817,0,0,0-.157-.015.621.621,0,0,0-.478.193.5.5,0,0,0-.031.531,11.866,11.866,0,0,1,.737,3.5l0,.019c.186,1.863.351,2.85,1.824,3.156a5.159,5.159,0,0,0,1.06.1c.107,0,.221,0,.336-.007h.018a.308.308,0,0,1,0,.615c-.121,0-.238.006-.349.006a6.488,6.488,0,0,1-.822-.048L3.518,38.4a.307.307,0,1,1-.615,0L2.867,28.225C1.115,27.738.969,26.28.8,24.591v-.01a11.421,11.421,0,0,0-.7-3.338A1.106,1.106,0,0,1,.23,20.091a1.241,1.241,0,0,1,.954-.415A1.438,1.438,0,0,1,2.56,20.7c.017.066.175.681.359,1.911a1.232,1.232,0,0,0,.054.186.337.337,0,0,0,.165-.25l-.194-2.82A15.064,15.064,0,0,1,.159,9.1,11.2,11.2,0,0,1,1.719,4.84a10.459,10.459,0,0,1,2.96-3.111A9.836,9.836,0,0,1,10.2,0a9.527,9.527,0,0,1,4.524,1.148,12.626,12.626,0,0,1,4.226,3.814,1.234,1.234,0,0,1,.378-.058,1.307,1.307,0,0,1,.444.078A12.643,12.643,0,0,1,24,1.154,9.526,9.526,0,0,1,28.532,0a9.843,9.843,0,0,1,5.512,1.724c4.688,3.221,6.789,10.437,1.737,18l-.194,2.82a.338.338,0,0,0,.165.249,1.293,1.293,0,0,0,.057-.2,18.932,18.932,0,0,1,.352-1.879A1.458,1.458,0,0,1,37.273,19.7a1.439,1.439,0,0,1,.269-.026,1.241,1.241,0,0,1,.954.415,1.1,1.1,0,0,1,.131,1.149,11.429,11.429,0,0,0-.7,3.351c-.169,1.69-.314,3.15-2.067,3.636L35.823,38.4A.307.307,0,0,1,35.516,38.709ZM30.344,14.923h-.018c-.166.01-.334.17-.334.454,0,0,0,.087.013.238.118,2.174.21,3.728.273,4.618a6.756,6.756,0,0,1,.683-.243.11.11,0,0,0,0-.012l0-.017v0a.171.171,0,0,1,0-.033l-.289-4.6C30.629,15.075,30.508,14.923,30.344,14.923Zm-21.955,0c-.17,0-.292.155-.324.415l-.287,4.588v.006a.211.211,0,0,1,0,.029.081.081,0,0,1-.005.022l0,.008a6.842,6.842,0,0,1,.684.243c.083-1.164.2-3.262.283-4.816l0-.056a.4.4,0,0,0-.334-.438ZM6.043,13.159c-.233,0-.372.18-.372.482,0,.181.013.616.03,1.166v.034l0,.063v.01c.047,1.549.118,3.889.047,4.726.264.018.533.047.8.086-.053-1.432-.005-5.2.009-5.9C6.558,13.336,6.25,13.159,6.043,13.159Zm26.642,0c-.208,0-.516.178-.516.67.014.676.061,4.5.008,5.9.272-.04.541-.069.8-.086-.07-.839,0-3.166.047-4.706V14.9c.02-.663.033-1.079.033-1.263C33.056,13.34,32.917,13.159,32.684,13.159ZM22.112,7.792c-.269,0-.458.228-.5.609l-.19,6.03a8.263,8.263,0,0,1,.975.363c.1-1.768.274-6.321.275-6.347a.6.6,0,0,0-.522-.654ZM19.325,5.516a.566.566,0,0,0-.305.083l0,0-.008.005a.7.7,0,0,0-.26.61c0,1.891.034,6.1.083,7.743.334.027.67.067,1,.118.018-1.084.083-2.7.145-4.269l0-.076c.056-1.395.1-2.522.118-3.28a.929.929,0,0,0-.393-.825A.7.7,0,0,0,19.325,5.516Z" transform="translate(0 0)" fill="#595858"/>
</svg>
