<svg xmlns="http://www.w3.org/2000/svg" width="20.562" height="16" viewBox="0 0 20.562 16">
  <path id="Path_208" data-name="Path 208" d="M24.226,9.662a.579.579,0,0,0-.8,0L20.74,12.27C13.674,8.934,7.916,14.538,6.3,16.366a1.707,1.707,0,0,0,.015,2.248,18.326,18.326,0,0,0,4.233,3.568L8.1,24.558a.541.541,0,0,0,0,.78.579.579,0,0,0,.8,0l15.321-14.9A.541.541,0,0,0,24.226,9.662ZM7.166,17.887a.633.633,0,0,1-.009-.8c1.862-2.1,6.733-6.557,12.73-3.987l-2.106,2.048a2.962,2.962,0,0,0-1.618-.484A2.881,2.881,0,0,0,13.246,17.5a2.763,2.763,0,0,0,.492,1.578l-2.362,2.3a16.857,16.857,0,0,1-4.21-3.487Zm7.406.38a1.679,1.679,0,0,1-.192-.767,1.761,1.761,0,0,1,1.783-1.733,1.814,1.814,0,0,1,.789.186l-2.38,2.314Zm11.457.368c-1.5,1.7-5.148,5.152-9.924,5.152a10.121,10.121,0,0,1-2.8-.4.549.549,0,0,1-.383-.685.57.57,0,0,1,.7-.373c5.5,1.578,9.9-2.561,11.544-4.414a.634.634,0,0,0-.009-.8,18.821,18.821,0,0,0-2.9-2.654.541.541,0,0,1-.116-.772.578.578,0,0,1,.794-.113,19.909,19.909,0,0,1,3.08,2.812,1.709,1.709,0,0,1,.015,2.249ZM18.581,17.47a.552.552,0,0,1,.428.661A2.875,2.875,0,0,1,16.67,20.3a.565.565,0,0,1-.657-.448.546.546,0,0,1,.461-.639A1.755,1.755,0,0,0,17.9,17.886a.567.567,0,0,1,.679-.416Z" transform="translate(-5.883 -9.5)" fill="#808289"/>
</svg>
