<svg xmlns="http://www.w3.org/2000/svg" width="17.221" height="17.277" viewBox="0 0 17.221 17.277">
  <g id="Group_2" data-name="Group 2" transform="translate(0.15 0.15)">
    <path id="Path_5" data-name="Path 5" d="M18.4,10.141a1.485,1.485,0,0,0-2.085-.055l-3.4,3.024a1.229,1.229,0,0,0-1.167-.858H4.864a1.1,1.1,0,0,0-1.031-.733H3.095A1.1,1.1,0,0,0,2,12.614v5.137a1.1,1.1,0,0,0,1.095,1.095h.732a1.1,1.1,0,0,0,1.037-.733H6.408l.462.191a7.191,7.191,0,0,0,8.287-2.07L18.491,12.2a1.536,1.536,0,0,0-.088-2.059ZM6.028,17.38H4.933V12.986H6.028ZM12.245,13.4Zm-2.008-1.922a.369.369,0,0,0,.369,0c.2-.119,4.975-2.941,4.975-6.289A3.182,3.182,0,0,0,12.407,2a3.146,3.146,0,0,0-1.984.7A3.146,3.146,0,0,0,8.436,2,3.181,3.181,0,0,0,5.262,5.182c0,3.348,4.772,6.171,4.975,6.289Zm2.171-8.741Z" transform="translate(-2 -2)" fill="#fff" stroke="#fff" stroke-width="0.3"/>
  </g>
</svg>
