<svg xmlns="http://www.w3.org/2000/svg" width="25.149" height="27.658" viewBox="0 0 25.149 27.658">
  <g id="Group_1705" data-name="Group 1705" transform="translate(-317.131 -19)">
    <path id="Op_component_1" data-name="Op component 1" d="M9.117,25.4l1.151-.5a2.516,2.516,0,0,0,4.624-.027l1.156.492a3.773,3.773,0,0,1-6.931.039ZM.631,23.885A.63.63,0,0,1,0,23.254v-.63a.632.632,0,0,1,.227-.481l3.32-2.766a.618.618,0,0,0,.226-.482V11.543A8.979,8.979,0,0,1,10.1,2.88a2.6,2.6,0,0,1-.039-.365A2.506,2.506,0,0,1,11,.551,2.542,2.542,0,0,1,13.156.064a2.51,2.51,0,0,1,1.925,2.219,2.6,2.6,0,0,1-.022.592,8.783,8.783,0,0,1,6.317,8.437V18.9a.624.624,0,0,0,.228.481l3.319,2.766a.652.652,0,0,1,.227.476v.63a.631.631,0,0,1-.631.631Z" transform="translate(317.131 19)" fill="#fad141"/>
    <path id="Op_component_3" data-name="Op component 3" d="M4449.353,1563.021l2.738-2.285a1.879,1.879,0,0,0,.681-1.449v-7.352a7.652,7.652,0,0,1,7.181-7.767,7.537,7.537,0,0,1,7.905,7.535v7.584a1.889,1.889,0,0,0,.68,1.449l2.738,2.285Z" transform="translate(-4130.612 -1521.392)" fill="#fad141"/>
  </g>
</svg>
