<svg xmlns="http://www.w3.org/2000/svg" xmlns:xlink="http://www.w3.org/1999/xlink" width="68.29" height="66.232" viewBox="0 0 68.29 66.232">
  <defs>
    <filter id="Icon_awesome-star" x="0" y="0" width="68.29" height="66.232" filterUnits="userSpaceOnUse">
      <feOffset input="SourceAlpha"/>
      <feGaussianBlur stdDeviation="4" result="blur"/>
      <feFlood flood-color="#ebc830" flood-opacity="0.502"/>
      <feComposite operator="in" in2="blur"/>
      <feComposite in="SourceGraphic"/>
    </filter>
  </defs>
  <g transform="matrix(1, 0, 0, 1, 0, 0)" filter="url(#Icon_awesome-star)">
    <path id="Icon_awesome-star-2" data-name="Icon awesome-star" d="M21.21,1.468,15.8,12.388,3.71,14.145a2.638,2.638,0,0,0-1.465,4.5l8.75,8.495-2.07,12a2.646,2.646,0,0,0,3.841,2.779l10.82-5.666,10.82,5.666a2.648,2.648,0,0,0,3.841-2.779l-2.07-12,8.75-8.495a2.638,2.638,0,0,0-1.465-4.5L31.368,12.388,25.962,1.468a2.656,2.656,0,0,0-4.752,0Z" transform="translate(10.56 12)" fill="#fbd534"/>
  </g>
</svg>
