<svg xmlns="http://www.w3.org/2000/svg" width="12.865" height="11.257" viewBox="0 0 12.865 11.257">
  <path id="Icon_awesome-sort-amount-down" data-name="Icon awesome-sort-amount-down" d="M7.639,11.9H6.03a.4.4,0,0,0-.4.4v.8a.4.4,0,0,0,.4.4H7.639a.4.4,0,0,0,.4-.4v-.8A.4.4,0,0,0,7.639,11.9ZM4.422,10.291H3.216V2.652a.4.4,0,0,0-.4-.4h-.8a.4.4,0,0,0-.4.4v7.639H.4a.4.4,0,0,0-.284.686l2.01,2.412a.4.4,0,0,0,.568,0l2.01-2.412A.4.4,0,0,0,4.422,10.291Zm6.432-4.824H6.03a.4.4,0,0,0-.4.4v.8a.4.4,0,0,0,.4.4h4.824a.4.4,0,0,0,.4-.4v-.8A.4.4,0,0,0,10.855,5.466ZM9.247,8.682H6.03a.4.4,0,0,0-.4.4v.8a.4.4,0,0,0,.4.4H9.247a.4.4,0,0,0,.4-.4v-.8A.4.4,0,0,0,9.247,8.682ZM12.463,2.25H6.03a.4.4,0,0,0-.4.4v.8a.4.4,0,0,0,.4.4h6.432a.4.4,0,0,0,.4-.4v-.8A.4.4,0,0,0,12.463,2.25Z" transform="translate(0 -2.25)" fill="#fff"/>
</svg>
