<svg xmlns="http://www.w3.org/2000/svg" width="16.706" height="16.976" viewBox="0 0 16.706 16.976">
  <path id="Icon_awesome-power-off" data-name="Icon awesome-power-off" d="M13.766,1.822a8.352,8.352,0,1,1-9.707,0,.811.811,0,0,1,1.179.259l.532.946a.808.808,0,0,1-.222,1.044,5.658,5.658,0,1,0,6.733,0,.8.8,0,0,1-.219-1.041l.532-.946a.807.807,0,0,1,1.172-.263Zm-3.5,7.07V.808A.806.806,0,0,0,9.454,0H8.377a.806.806,0,0,0-.808.808V8.892a.806.806,0,0,0,.808.808H9.454A.806.806,0,0,0,10.263,8.892Z" transform="translate(-0.562)" fill="#fff"/>
</svg>
