<svg xmlns="http://www.w3.org/2000/svg" width="16.527" height="18.888" viewBox="0 0 16.527 18.888">
  <path id="Icon_awesome-unlock" data-name="Icon awesome-unlock" d="M14.756,9.444H5.607V5.64a2.656,2.656,0,1,1,5.312-.033V6.2a.883.883,0,0,0,.885.885h1.18a.883.883,0,0,0,.885-.885v-.59a5.607,5.607,0,1,0-11.215.055V9.444H1.771A1.771,1.771,0,0,0,0,11.215v5.9a1.771,1.771,0,0,0,1.771,1.771H14.756a1.771,1.771,0,0,0,1.771-1.771v-5.9A1.771,1.771,0,0,0,14.756,9.444Z" transform="translate(0 0)" fill="#fff"/>
</svg>
