<svg xmlns="http://www.w3.org/2000/svg" width="11.515" height="11.516" viewBox="0 0 11.515 11.516">
  <path id="Icon_material-update" data-name="Icon material-update" d="M16.017,9.055H11.679l1.753-1.8a4.5,4.5,0,0,0-6.321-.064,4.4,4.4,0,0,0,0,6.263,4.491,4.491,0,0,0,6.321,0,4.167,4.167,0,0,0,1.305-3.129h1.28a5.976,5.976,0,0,1-1.689,4.024,5.793,5.793,0,0,1-8.138,0A5.655,5.655,0,0,1,6.177,6.3a5.75,5.75,0,0,1,8.093,0l1.747-1.8ZM10.579,7.7v2.719l2.239,1.331-.461.774L9.619,10.9V7.7Z" transform="translate(-4.502 -4.5)" fill="#36373b"/>
</svg>
