<svg xmlns="http://www.w3.org/2000/svg" width="8" height="13" viewBox="0 0 15.076 24.435">
  <g id="Group_11897" data-name="Group 11897" transform="translate(-27.482 -284.784)">
    <path id="Path_257" data-name="Path 257" d="M7.542,21.982h0L1.035,11.1A7.187,7.187,0,0,1,.249,5.507a7.348,7.348,0,0,1,3.486-4.5,7.681,7.681,0,0,1,7.5-.063,7.458,7.458,0,0,1,2.812,2.706,7.261,7.261,0,0,1,0,7.446L7.542,21.981Zm0-19.71a4.768,4.768,0,0,0-4.814,4.71A4.768,4.768,0,0,0,7.54,11.692a4.768,4.768,0,0,0,4.814-4.709A4.768,4.768,0,0,0,7.54,2.272Z" transform="translate(27.482 284.784)" fill="#36373B"/>
    <path id="Path_258" data-name="Path 258" d="M1.671,20.082C.594,19.635,0,19,0,18.287c0-1.016,1.184-1.849,3.165-2.227l.129.744c-1.688.321-2.572.989-2.572,1.482,0,.369.455.777,1.215,1.092a9.033,9.033,0,0,0,3.35.571,9.03,9.03,0,0,0,3.35-.571c.76-.315,1.215-.723,1.215-1.092,0-.493-.884-1.161-2.572-1.482l.129-.744c1.982.378,3.165,1.21,3.165,2.227,0,.711-.594,1.348-1.671,1.795a9.746,9.746,0,0,1-3.615.625A9.746,9.746,0,0,1,1.671,20.082ZM1.46,3.009A3.925,3.925,0,0,1,5.287-1,3.926,3.926,0,0,1,9.114,3.009,3.926,3.926,0,0,1,5.287,7.017,3.925,3.925,0,0,1,1.46,3.009Zm.723,0a3.183,3.183,0,0,0,3.1,3.251,3.184,3.184,0,0,0,3.1-3.251,3.185,3.185,0,0,0-3.1-3.252A3.184,3.184,0,0,0,2.183,3.009Z" transform="translate(29.736 288.513)" fill="#36373B"/>
  </g>
</svg>
