<svg xmlns="http://www.w3.org/2000/svg" width="30" height="32" viewBox="0 0 70.539 83.569">
  <path id="Path_145" data-name="Path 145" d="M1411.967,432.031h0q-.137-1.835-.262-3.559l0-.033c-.559-7.648-1-13.689-1.854-18.477-.906-5.084-2.241-8.48-4.328-11.01a14.84,14.84,0,0,0-4.087-3.415,25.844,25.844,0,0,0-5.9-2.4c-4.274-1.224-9.907-2.088-18.834-2.891,8.927-.8,14.56-1.666,18.835-2.889a25.863,25.863,0,0,0,5.9-2.4,14.838,14.838,0,0,0,4.087-3.411c2.087-2.527,3.422-5.919,4.327-11,.853-4.783,1.294-10.816,1.852-18.454l0-.033q.128-1.743.265-3.6c.095,1.274.187,2.529.268,3.636.558,7.639,1,13.672,1.852,18.455.906,5.078,2.24,8.47,4.327,11a14.838,14.838,0,0,0,4.087,3.411,25.864,25.864,0,0,0,5.9,2.4c4.274,1.223,9.907,2.087,18.835,2.889-8.927.8-14.56,1.666-18.835,2.889a25.863,25.863,0,0,0-5.9,2.4,14.838,14.838,0,0,0-4.087,3.411c-2.087,2.527-3.422,5.919-4.327,11-.853,4.783-1.294,10.816-1.852,18.455v.012Q1412.106,430.161,1411.967,432.031ZM1387.3,413.547h0a26.627,26.627,0,0,1,2.438-3.154,42.8,42.8,0,0,1,3.163-3.234,47.832,47.832,0,0,1,4.563-3.707,47.651,47.651,0,0,1-3.732,4.532,42.836,42.836,0,0,1-3.255,3.142A26.755,26.755,0,0,1,1387.3,413.547Zm49.319,0a27,27,0,0,1-3.176-2.427,43.2,43.2,0,0,1-3.256-3.143,47.908,47.908,0,0,1-3.732-4.525,48.12,48.12,0,0,1,4.555,3.707,43.207,43.207,0,0,1,3.164,3.234,26.915,26.915,0,0,1,2.444,3.154Zm-10.162-36.5h0a47.621,47.621,0,0,1,3.731-4.531,42.793,42.793,0,0,1,3.256-3.142,27.008,27.008,0,0,1,3.176-2.421v0a27.08,27.08,0,0,1-2.437,3.152,42.8,42.8,0,0,1-3.163,3.234A47.84,47.84,0,0,1,1426.456,377.043Zm-28.994,0a47.833,47.833,0,0,1-4.562-3.706,42.8,42.8,0,0,1-3.163-3.234,26.784,26.784,0,0,1-2.438-3.155h0a27.536,27.536,0,0,1,3.174,2.427,43.219,43.219,0,0,1,3.255,3.143,47.925,47.925,0,0,1,3.731,4.524Z" transform="translate(-1376.698 -348.462)" fill="#fff"/>
</svg>
