<svg xmlns="http://www.w3.org/2000/svg" width="30" height="32" viewBox="0 0 30 32">
  <path id="Path_2987" data-name="Path 2987" d="M22.916,53.359h0q-.089-1.177-.171-2.282c-.363-4.884-.65-8.742-1.2-11.8-.589-3.247-1.455-5.416-2.812-7.032a12.426,12.426,0,0,0-6.49-3.713A69.068,69.068,0,0,0,0,26.686,69.119,69.119,0,0,0,12.237,24.84a12.432,12.432,0,0,0,6.49-3.71c1.356-1.614,2.223-3.78,2.811-7.024.554-3.054.84-6.907,1.2-11.786Q22.824,1.2,22.915,0q.091,1.2.174,2.321c.363,4.878.649,8.731,1.2,11.786.588,3.243,1.455,5.409,2.812,7.023a12.429,12.429,0,0,0,6.489,3.71,69.144,69.144,0,0,0,12.237,1.845A69.131,69.131,0,0,0,33.593,28.53,12.425,12.425,0,0,0,27.1,32.24c-1.356,1.614-2.223,3.78-2.812,7.023-.554,3.055-.841,6.908-1.2,11.786Q23.006,52.167,22.916,53.359Zm16.013-11.8a26.127,26.127,0,0,1-6.6-6.445,26.165,26.165,0,0,1,6.6,6.444Zm-32.039,0h0a25.864,25.864,0,0,1,6.6-6.444A25.891,25.891,0,0,1,6.89,41.563ZM32.333,18.25h0a25.783,25.783,0,0,1,6.6-6.443l0,.006A26.086,26.086,0,0,1,32.333,18.25Zm-18.846,0a26.159,26.159,0,0,1-6.6-6.444l.007,0a26.4,26.4,0,0,1,6.594,6.441Z" fill="#fff"/>
</svg>
