<svg xmlns="http://www.w3.org/2000/svg" width="16.643" height="15.907" viewBox="0 0 16.643 15.907">
  <g id="noun-star-5480646" transform="translate(-0.223 -3.479)">
    <path id="Path_4547" data-name="Path 4547" d="M10.549,3.954l1.959,4.286a.277.277,0,0,0,.229.166l4.681.539a.806.806,0,0,1,.454,1.4L14.4,13.528a.277.277,0,0,0-.088.27l.934,4.619a.8.8,0,0,1-1.187.862l-4.1-2.316a.283.283,0,0,0-.284,0l-4.1,2.316a.8.8,0,0,1-1.187-.862L5.316,13.8a.277.277,0,0,0-.088-.27l-3.47-3.187a.805.805,0,0,1,.454-1.4l4.682-.539a.277.277,0,0,0,.229-.166L9.082,3.954a.8.8,0,0,1,1.468,0Z" transform="translate(-1.271)" fill="#fff" fill-rule="evenodd"/>
  </g>
</svg>
