<svg xmlns="http://www.w3.org/2000/svg" width="19.375" height="16.146" viewBox="0 0 19.375 16.146">
  <g id="noun-dashboard-6000235" transform="translate(-4 -6)">
    <path id="Path_4529" data-name="Path 4529" d="M9.651,6H7.229A3.228,3.228,0,0,0,4,9.229v9.688a3.228,3.228,0,0,0,3.229,3.229H9.651a3.228,3.228,0,0,0,3.229-3.229V9.229A3.228,3.228,0,0,0,9.651,6Z" transform="translate(0 0)" fill="#fff"/>
    <path id="Path_4530" data-name="Path 4530" d="M23.458,6H19.422A2.429,2.429,0,0,0,17,8.422v2.422a2.429,2.429,0,0,0,2.422,2.422h4.036a2.429,2.429,0,0,0,2.422-2.422V8.422A2.429,2.429,0,0,0,23.458,6Z" transform="translate(-2.505 0)" fill="#fff"/>
    <path id="Path_4531" data-name="Path 4531" d="M23.458,17H19.422A2.429,2.429,0,0,0,17,19.422v2.422a2.429,2.429,0,0,0,2.422,2.422h4.036a2.429,2.429,0,0,0,2.422-2.422V19.422A2.429,2.429,0,0,0,23.458,17Z" transform="translate(-2.505 -2.12)" fill="#fff"/>
  </g>
</svg>
