<svg xmlns="http://www.w3.org/2000/svg" width="18" height="20" viewBox="0 0 18 20">
  <g id="noun-opportunity-3632601" transform="translate(0 0)">
    <path id="Path_1" data-name="Path 1" d="M14,20.5a.5.5,0,0,1-.5.5H13a1,1,0,0,1-2,0h-.5a.5.5,0,0,1,0-1h3a.5.5,0,0,1,.5.5Zm-9.5-10h-1a.5.5,0,0,0,0,1h1a.5.5,0,0,0,0-1Zm16,0h-1a.5.5,0,0,0,0,1h1a.5.5,0,0,0,0-1Zm-.706-4a.5.5,0,0,0-.683-.183l-.866.5a.5.5,0,0,0,.25.933.493.493,0,0,0,.25-.067l.866-.5a.5.5,0,0,0,.183-.683ZM15.5,4.938A.493.493,0,0,0,15.75,5a.5.5,0,0,0,.434-.25l.5-.866a.5.5,0,0,0-.866-.5l-.5.866a.5.5,0,0,0,.183.683ZM12,4a.5.5,0,0,0,.5-.5v-1a.5.5,0,0,0-1,0v1A.5.5,0,0,0,12,4Zm-4.183.755A.5.5,0,0,0,8.25,5a.493.493,0,0,0,.25-.067.5.5,0,0,0,.183-.683l-.5-.866a.5.5,0,0,0-.866.5ZM5.755,6.817l-.866-.5a.5.5,0,1,0-.5.865l.866.5A.493.493,0,0,0,5.5,7.75a.5.5,0,0,0,.25-.933ZM18,11a5.992,5.992,0,0,1-3,5.19V17a2,2,0,0,1-2,2H11a2,2,0,0,1-2-2v-.809A6,6,0,1,1,18,11Z" transform="translate(-3 -2)" fill="#fff"/>
  </g>
</svg>
