<svg xmlns="http://www.w3.org/2000/svg" width="23.088" height="16" viewBox="0 0 23.088 16">
  <g id="noun-organization-1401444" transform="translate(-1 -8.675)">
    <g id="Group_12049" data-name="Group 12049" transform="translate(1 8.675)">
      <path id="Path_4532" data-name="Path 4532" d="M18.832,15.425a4.176,4.176,0,0,0,1.012.926,2.987,2.987,0,0,0,1.518.5c.036,0,.068,0,.1,0a1.182,1.182,0,0,0,.126,0c2.033-.095,3.605-2.458,3.605-4.441a3.736,3.736,0,0,0-7.472,0,5,5,0,0,0,1.057,2.955A.674.674,0,0,0,18.832,15.425Z" transform="translate(-9.92 -8.675)" fill="#36373B"/>
      <path id="Path_4533" data-name="Path 4533" d="M36.25,19.176a2.414,2.414,0,0,0,.623.574,1.85,1.85,0,0,0,1.016.312,2.667,2.667,0,0,0,2.3-2.693,2.3,2.3,0,1,0-4.6,0,2.994,2.994,0,0,0,.642,1.78A.12.12,0,0,0,36.25,19.176Z" transform="translate(-19.461 -12.084)" fill="#36373B"/>
      <path id="Path_4534" data-name="Path 4534" d="M6.89,19.181a2.459,2.459,0,0,0,.619.569,1.872,1.872,0,0,0,1.017.312,2.663,2.663,0,0,0,2.3-2.693,2.3,2.3,0,1,0-4.6,0,3.018,3.018,0,0,0,.637,1.78C6.871,19.158,6.88,19.172,6.89,19.181Z" transform="translate(-3.865 -12.084)" fill="#36373B"/>
      <path id="Path_4535" data-name="Path 4535" d="M42.176,25.493a3.009,3.009,0,0,1-2.31,1.189,2.674,2.674,0,0,1-.675-.092,8.79,8.79,0,0,1,2.3,3.4h2.58a.452.452,0,0,0,.452-.452A4.66,4.66,0,0,0,42.176,25.493Z" transform="translate(-21.438 -17.66)" fill="#36373B"/>
      <path id="Path_4536" data-name="Path 4536" d="M6.354,26.59a2.631,2.631,0,0,1-.694.094,2.759,2.759,0,0,1-1.5-.454,3.381,3.381,0,0,1-.81-.733A4.66,4.66,0,0,0,1,29.537a.452.452,0,0,0,.452.452H4.039A8.975,8.975,0,0,1,6.354,26.59Z" transform="translate(-1 -17.662)" fill="#36373B"/>
      <path id="Path_4537" data-name="Path 4537" d="M19.576,25.986a4.347,4.347,0,0,1-2.758,1.258c-.067.006-.125.007-.195.007-.04,0-.077,0-.114,0a4.111,4.111,0,0,1-2.062-.645,5.057,5.057,0,0,1-.789-.614,7.964,7.964,0,0,0-5.222,7.381.457.457,0,0,0,.466.452H24.344a.457.457,0,0,0,.466-.452.539.539,0,0,0-.009-.09A7.986,7.986,0,0,0,19.576,25.986Z" transform="translate(-5.076 -17.82)" fill="#36373B"/>
    </g>
  </g>
</svg>