<svg xmlns="http://www.w3.org/2000/svg" width="16" height="21.914" viewBox="0 0 16 21.914">
  <path id="privacy" d="M15.358,7.042H12.319V3.914A4.137,4.137,0,0,0,8,0,4.137,4.137,0,0,0,3.68,3.914V7.042H.642A.642.642,0,0,0,0,7.684v8.21a6.026,6.026,0,0,0,6.019,6.019H9.98A6.026,6.026,0,0,0,16,15.894V7.684a.642.642,0,0,0-.642-.642ZM8.642,15.807a.642.642,0,0,1-1.284,0V13.148a.642.642,0,1,1,1.284,0ZM4.964,7.042V3.914A2.858,2.858,0,0,1,8,1.284a2.858,2.858,0,0,1,3.035,2.631V7.042Zm0,0" transform="translate(0 0)" fill="#fff"/>
</svg>
