<svg xmlns="http://www.w3.org/2000/svg" width="10.486" height="9.001" viewBox="0 0 10.486 9.001">
  <path id="Path_1279" data-name="Path 1279" d="M4797.924,1956.841l1.35,2.74a.677.677,0,0,0,.236.264.772.772,0,0,0,.352.122l3.3.313-2.47,2.005a.658.658,0,0,0-.2.285.593.593,0,0,0-.02.34l.692,2.933-2.877-1.5a.795.795,0,0,0-.727,0l-2.877,1.5.692-2.933a.593.593,0,0,0-.02-.34.655.655,0,0,0-.205-.285l-2.47-2.005,3.3-.312a.772.772,0,0,0,.352-.122.669.669,0,0,0,.236-.264Z" transform="translate(-4792.681 -1956.841)" fill="#36373B"/>
</svg>
