<svg id="Component_5_529" data-name="Component 5 – 529" xmlns="http://www.w3.org/2000/svg" width="32" height="32" viewBox="0 0 32 32">
  <g id="Group_12115" data-name="Group 12115" transform="translate(-1210 -197)">
    <rect id="Rectangle_3110" data-name="Rectangle 3110" width="32" height="32" rx="16" transform="translate(1210 197)" fill="#effdde"/>
    <path id="Icon_material-block" data-name="Icon material-block" d="M10,3a7,7,0,1,0,7,7A7,7,0,0,0,10,3ZM4.4,10A5.6,5.6,0,0,1,10,4.4a5.532,5.532,0,0,1,3.43,1.183L5.583,13.43A5.532,5.532,0,0,1,4.4,10ZM10,15.6a5.532,5.532,0,0,1-3.43-1.183L14.417,6.57A5.532,5.532,0,0,1,15.6,10,5.6,5.6,0,0,1,10,15.6Z" transform="translate(1216 203)" fill="#7ed957"/>
    <line id="Line_989" data-name="Line 989" x1="2" y2="2" transform="translate(1225 212)" fill="none" stroke="#fef9d9" stroke-width="2"/>
  </g>
</svg>
